/vscmnt/brussel_pixiu_data/_data_brussel/112/vsc11236/PredSimResults/SUBJ04_Falisse2022/SUBJ04_Falisse2022_11471553.mot
version=1
nRows=4
nColumns=124
inDegrees=yes
endheader
                time	         pelvis_tilt	         pelvis_list	     pelvis_rotation	           pelvis_tx	           pelvis_ty	           pelvis_tz	       hip_flexion_r	     hip_adduction_r	      hip_rotation_r	        knee_angle_r	       ankle_angle_r	    subtalar_angle_r	         mtp_angle_r	       hip_flexion_l	     hip_adduction_l	      hip_rotation_l	        knee_angle_l	       ankle_angle_l	    subtalar_angle_l	         mtp_angle_l	    lumbar_extension	      lumbar_bending	     lumbar_rotation	          arm_flex_r	           arm_add_r	           arm_rot_r	        elbow_flex_r	          arm_flex_l	           arm_add_l	           arm_rot_l	        elbow_flex_l	glut_med1_r/activation	glut_med2_r/activation	glut_med3_r/activation	glut_min1_r/activation	glut_min2_r/activation	glut_min3_r/activation	semimem_r/activation	semiten_r/activation	bifemlh_r/activation	bifemsh_r/activation	    sar_r/activation	add_long_r/activation	add_brev_r/activation	add_mag1_r/activation	add_mag2_r/activation	add_mag3_r/activation	    tfl_r/activation	   pect_r/activation	   grac_r/activation	glut_max1_r/activation	glut_max2_r/activation	glut_max3_r/activation	iliacus_r/activation	  psoas_r/activation	quad_fem_r/activation	    gem_r/activation	   peri_r/activation	rect_fem_r/activation	vas_med_r/activation	vas_int_r/activation	vas_lat_r/activation	med_gas_r/activation	lat_gas_r/activation	 soleus_r/activation	tib_post_r/activation	flex_dig_r/activation	flex_hal_r/activation	tib_ant_r/activation	per_brev_r/activation	per_long_r/activation	per_tert_r/activation	ext_dig_r/activation	ext_hal_r/activation	glut_med1_l/activation	glut_med2_l/activation	glut_med3_l/activation	glut_min1_l/activation	glut_min2_l/activation	glut_min3_l/activation	semimem_l/activation	semiten_l/activation	bifemlh_l/activation	bifemsh_l/activation	    sar_l/activation	add_long_l/activation	add_brev_l/activation	add_mag1_l/activation	add_mag2_l/activation	add_mag3_l/activation	    tfl_l/activation	   pect_l/activation	   grac_l/activation	glut_max1_l/activation	glut_max2_l/activation	glut_max3_l/activation	iliacus_l/activation	  psoas_l/activation	quad_fem_l/activation	    gem_l/activation	   peri_l/activation	rect_fem_l/activation	vas_med_l/activation	vas_int_l/activation	vas_lat_l/activation	med_gas_l/activation	lat_gas_l/activation	 soleus_l/activation	tib_post_l/activation	flex_dig_l/activation	flex_hal_l/activation	tib_ant_l/activation	per_brev_l/activation	per_long_l/activation	per_tert_l/activation	ext_dig_l/activation	ext_hal_l/activation	 ercspn_r/activation	 ercspn_l/activation	 intobl_r/activation	 intobl_l/activation	 extobl_r/activation	 extobl_l/activation	
          0.00000000	         -7.70551069	         -2.07960626	          1.81134705	          0.00000000	          0.87488244	         -0.00438890	         32.02515330	          4.53203819	          4.59631847	         -6.20349018	          8.39917446	         -7.08542765	          0.20964327	        -10.87573751	          1.83045500	         12.60619346	         -5.33820650	          7.17005066	         -6.62622817	         27.16372941	          0.75833783	          0.74399095	         -1.62622680	         -1.11002060	        -13.45050133	         19.29973515	         22.96502413	          0.09887272	        -13.46962814	         19.10679119	         46.18772712	          0.01689169	          0.01000014	          0.01000014	          0.01002204	          0.01000046	          0.01000028	          0.09227577	          0.02326808	          0.01545358	          0.01000016	          0.01104563	          0.04937389	          0.13206063	          0.14763917	          0.10773846	          0.04115087	          0.01000046	          0.02248495	          0.05928638	          0.01000017	          0.01000015	          0.02826541	          0.01833619	          0.01833630	          0.14489152	          0.01000380	          0.01004885	          0.02244436	          0.07334536	          0.07353329	          0.05997243	          0.01000002	          0.01000007	          0.01000003	          0.01877555	          0.01498142	          0.01498251	          0.24944075	          0.18326608	          0.14699919	          0.07040279	          0.34767577	          0.12114080	          0.26320664	          0.19999738	          0.14016384	          0.18739357	          0.22853052	          0.19712044	          0.01000767	          0.01000049	          0.01000051	          0.04265021	          0.09900540	          0.01000015	          0.01000024	          0.01000058	          0.01000174	          0.01000066	          0.25379399	          0.01000079	          0.01000173	          0.03792255	          0.02249374	          0.01001665	          0.29501366	          0.37115150	          0.02659354	          0.02839937	          0.15060044	          0.04370615	          0.01000102	          0.01000113	          0.01000118	          0.28084860	          0.34720335	          0.32186057	          0.28037777	          0.27100429	          0.25686817	          0.01224022	          0.01000081	          0.01213942	          0.01000047	          0.01000015	          0.01000109	          0.03606977	          0.01000004	          0.05029410	          0.01223955	          0.05315750	          0.01000003	
          0.01343779	         -7.70396528	         -2.34920623	          2.02686997	          0.01536025	          0.87370767	         -0.00423414	         30.95523058	          4.88844165	          4.97541557	         -5.94175550	          7.47199921	         -7.61362681	          0.19518504	        -10.88906838	          1.64761179	         12.09085883	         -7.18683077	          7.17401623	         -6.12986327	         28.73174982	          0.88365699	          1.23903183	         -1.68711201	         -1.77994475	        -13.45954451	         19.26194946	         21.25539576	         -0.51128353	        -13.48454034	         19.01361438	         48.68028912	          0.08448838	          0.01000050	          0.01000101	          0.01000048	          0.01000074	          0.14148830	          0.07572200	          0.01901117	          0.03383639	          0.01844609	          0.01224011	          0.04033944	          0.10789597	          0.12062396	          0.08802438	          0.03362112	          0.01000283	          0.01837132	          0.04843829	          0.05589383	          0.01000304	          0.02309363	          0.01498106	          0.01498115	          0.11838022	          0.02812414	          0.14647054	          0.01833747	          0.05992458	          0.06007812	          0.04899865	          0.01833565	          0.01645919	          0.01498377	          0.01533998	          0.01224022	          0.01224110	          0.29658929	          0.19934960	          0.12010112	          0.05875209	          0.43202304	          0.09897433	          0.26916617	          0.16340151	          0.11451641	          0.17709828	          0.18671377	          0.16105102	          0.01002835	          0.01004281	          0.01000516	          0.03484606	          0.08088949	          0.01000226	          0.01000072	          0.01000148	          0.01000382	          0.01000108	          0.20735442	          0.01002767	          0.01224058	          0.03098383	          0.01837812	          0.01000098	          0.27091738	          0.32422210	          0.02172750	          0.02320316	          0.12304331	          0.03570875	          0.01000020	          0.01000020	          0.01000018	          0.22945856	          0.30297797	          0.32119087	          0.26586476	          0.24995473	          0.24827893	          0.01000056	          0.01000015	          0.01000008	          0.01000032	          0.01000012	          0.01000078	          0.02946967	          0.01961364	          0.06555239	          0.01000004	          0.04343064	          0.01000033	
          0.02687558	         -7.70013466	         -2.61779750	          2.22559898	          0.03088226	          0.87265508	         -0.00404818	         29.83181903	          5.21153309	          5.35977963	         -5.63307197	          6.55841437	         -8.14680879	          0.19674996	        -10.81150621	          1.46004351	         11.55954402	         -9.20235348	          7.07978159	         -5.61613900	         30.22044481	          1.01162830	          1.74258440	         -1.74128756	         -2.49587983	        -13.47019174	         19.25954891	         19.66561546	         -1.16922434	        -13.49753586	         18.92395987	         51.15121813	          0.14202013	          0.16037449	          0.18401755	          0.08307783	          0.09903531	          0.11559913	          0.06186628	          0.04258341	          0.02764572	          0.01507156	          0.01000195	          0.03295811	          0.08815301	          0.09855212	          0.07191785	          0.02747660	          0.01000090	          0.01501031	          0.03957522	          0.10378876	          0.05590029	          0.02601983	          0.01223985	          0.01223992	          0.09671903	          0.02297896	          0.11967319	          0.01498208	          0.04895962	          0.04908508	          0.04003294	          0.01498056	          0.01344747	          0.01224201	          0.01253306	          0.01000064	          0.01000130	          0.38103059	          0.21983676	          0.13259351	          0.29843373	          0.45589110	          0.19649154	          0.27447703	          0.13350202	          0.09356199	          0.19090090	          0.15254874	          0.13158167	          0.01003983	          0.01000058	          0.01000042	          0.02846990	          0.06608835	          0.01000031	          0.01000035	          0.01000076	          0.01000200	          0.01000087	          0.16941260	          0.01000142	          0.01000270	          0.02531472	          0.01501559	          0.01000152	          0.22134496	          0.28192520	          0.01775184	          0.01895774	          0.10052864	          0.03705731	          0.01000073	          0.01000074	          0.01000067	          0.18747180	          0.24753856	          0.30491510	          0.25513342	          0.23971850	          0.23612918	          0.01000012	          0.01000032	          0.01000029	          0.01000044	          0.01000015	          0.01000069	          0.04933344	          0.03252685	          0.05355754	          0.01000001	          0.03548363	          0.01000004	
          0.04031337	         -7.69481172	         -2.87365545	          2.40964754	          0.04640889	          0.87186016	         -0.00382336	         28.72228988	          5.52808070	          5.74227135	         -5.32557675	          5.60020119	         -8.67728795	          0.18957296	        -10.62465304	          1.27330276	         11.02070810	        -11.38496066	          6.85605392	         -5.07120600	         31.56529894	          1.13401214	          2.23905332	         -1.78965278	         -3.22864536	        -13.47296718	         19.28815673	         18.19150921	         -1.82504145	        -13.50584886	         18.86734566	         53.52493852	          0.20437377	          0.22993723	          0.25334364	          0.06788218	          0.10653088	          0.14590265	          0.05054593	          0.03546787	          0.02622811	          0.01231384	          0.01000095	          0.02692744	          0.07202266	          0.08051911	          0.05875908	          0.04015884	          0.01000102	          0.01226448	          0.03233386	          0.14358450	          0.08485159	          0.04361265	          0.01000028	          0.01000033	          0.07902155	          0.01877606	          0.13719198	          0.01224068	          0.07096691	          0.07021053	          0.05703967	          0.01223941	          0.01098687	          0.01000196	          0.01024018	          0.01000136	          0.01000112	          0.44430299	          0.24085411	          0.13713542	          0.33966521	          0.49797469	          0.21970584	          0.24553347	          0.10907359	          0.07644185	          0.15597162	          0.12463521	          0.10750465	          0.01006080	          0.01000123	          0.01000071	          0.02326046	          0.05399550	          0.01001266	          0.03251077	          0.01001195	          0.01003649	          0.01000568	          0.13841331	          0.03357501	          0.01000580	          0.02068290	          0.01226833	          0.01000130	          0.18084293	          0.23033814	          0.01450366	          0.01548911	          0.08213374	          0.03027658	          0.01000118	          0.01000119	          0.01000097	          0.15316785	          0.20224351	          0.27935586	          0.24478255	          0.23302680	          0.22591023	          0.01000009	          0.01212071	          0.01223961	          0.01000069	          0.01000017	          0.01000057	          0.05721905	          0.05316311	          0.04375749	          0.01000002	          0.02899077	          0.01000004	
